#!OML:ASF X:\für Bonn\!DataBase\2005_08_12_Daniel\c3d\Daniel.ASF
:FULLY-SPECIFIED
:DEGREES
1088
root 3.25019 16.9482 -0.410441 -98.8085 -80.7793 88.8575
lowerback 23.4683 -5.36875 -8.26802
upperback 7.39067 -9.85598 -4.80733
thorax -4.31884 -5.11958 2.01448
lowerneck 0.350078 5.9328 -3.47207
upperneck 3.51116 7.90233 -0.519042
head 0.901619 3.87739 0.45133
rclavicle -7.15625e-015 -5.08889e-014
rhumerus -48.5274 11.0901 -97.0452
rradius 33.3232
rwrist 0.864033
rhand -15.2248 19.5903
rfingers 7.12502
rthumb 10.948 -10.1043
lclavicle -7.15625e-015 -5.08889e-014
lhumerus -14.6084 -3.06162 84.2942
lradius 64.3561
lwrist 23.1219
lhand -16.2639 -0.302109
lfingers 7.12502
lthumb 9.94553 29.4429
rfemur -19.1296 17.7105 5.25797
rtibia 33.3476
rfoot -15.7669 -4.29606
rtoes -10.1026
lfemur -3.38572 -14.9054 -33.9542
ltibia 34.8661
lfoot -28.0569 10.0609
ltoes 3.5864
1089
root 3.23144 16.9467 -0.424554 -98.276 -80.6583 88.4026
lowerback 23.5474 -5.5029 -8.41208
upperback 7.42347 -10.0738 -4.82406
thorax -4.28326 -5.23055 2.12969
lowerneck 0.302344 6.0331 -3.32103
upperneck 3.26721 8.0417 -0.707434
head 0.845507 3.95218 0.367064
rclavicle 5.1684e-015 5.80451e-014
rhumerus -49.466 11.682 -97.3319
rradius 34.3753
rwrist 0.0699627
rhand -15.2077 19.7483
rfingers 7.12502
rthumb 10.9644 -9.94534
lclavicle 5.1684e-015 5.80451e-014
lhumerus -13.7779 -2.84076 83.7534
lradius 65.1385
lwrist 23.5571
lhand -16.3044 -0.296772
lfingers 7.12502
lthumb 9.90646 29.4501
rfemur -19.2369 18.0384 5.01427
rtibia 33.1933
rfoot -15.8532 -4.66521
rtoes -10.9399
lfemur -3.38569 -14.8953 -34.0304
ltibia 34.8288
lfoot -28.0646 10.0465
ltoes 3.37135
1090
root 3.21333 16.9447 -0.440405 -97.6899 -80.5577 87.8906
lowerback 23.641 -5.63477 -8.52757
upperback 7.45777 -10.2828 -4.83085
thorax -4.25601 -5.33665 2.23969
lowerneck 0.246753 6.11271 -3.23156
upperneck 3.01762 8.15272 -0.876925
head 0.786761 4.0123 0.298567
rclavicle -1.17283e-014 -9.54166e-015
rhumerus -50.3951 12.2589 -97.6036
rradius 35.3772
rwrist -0.672494
rhand -15.2168 19.9836
rfingers 7.12502
rthumb 10.9557 -9.7105
lclavicle -1.17283e-014 -9.54166e-015
lhumerus -12.9268 -2.57083 83.2567
lradius 65.9339
lwrist 23.9193
lhand -16.3714 -0.297759
lfingers 7.12502
lthumb 9.8419 29.4522
rfemur -19.307 18.2507 4.83137
rtibia 33.1078
rfoot -15.7757 -4.99999
rtoes -10.9899
lfemur -3.38732 -14.8709 -34.0711
ltibia 34.7902
lfoot -28.0408 9.97905
ltoes 3.30195
1091
root 3.19375 16.9442 -0.4568 -96.8254 -80.4662 87.0814
lowerback 23.738 -5.78383 -8.60516
upperback 7.50663 -10.5062 -4.8492
thorax -4.22148 -5.45078 2.32009
lowerneck 0.206984 6.18825 -3.16074
upperneck 2.71969 8.25612 -1.02878
head 0.709582 4.06969 0.236741
rclavicle 6.55989e-014 -2.38542e-014
rhumerus -51.3048 12.7648 -97.8448
rradius 36.3468
rwrist -1.30835
rhand -15.217 20.2062
rfingers 7.12502
rthumb 10.9555 -9.48791
lclavicle 6.55989e-014 -2.38542e-014
lhumerus -12.0046 -2.26704 82.7597
lradius 66.6465
lwrist 24.3612
lhand -16.4619 -0.451346
lfingers 7.12502
lthumb 9.75451 29.3027
rfemur -19.3038 18.3929 4.68574
rtibia 33.0641
rfoot -15.7529 -5.32063
rtoes -11.7292
lfemur -3.35187 -14.8814 -34.1145
ltibia 34.7491
lfoot -28.0241 9.93069
ltoes 3.08774
1092
root 3.17234 16.9435 -0.474427 -95.7737 -80.3807 86.1201
lowerback 23.7624 -5.95132 -8.64775
upperback 7.57784 -10.7366 -4.87864
thorax -4.13355 -5.57207 2.36032
lowerneck 0.113772 6.26709 -3.16505
upperneck 2.43877 8.36461 -1.08872
head 0.639888 4.12945 0.216491
rclavicle 1.70955e-014 7.95139e-016
rhumerus -52.1289 13.1869 -98.0571
rradius 37.1773
rwrist -1.78376
rhand -15.2383 20.5216
rfingers 7.12502
rthumb 10.9349 -9.1736
lclavicle 1.70955e-014 7.95139e-016
lhumerus -11.0054 -1.88779 82.276
lradius 67.3253
lwrist 24.7674
lhand -16.5253 -0.619617
lfingers 7.12502
lthumb 9.69334 29.1373
rfemur -19.3183 18.4423 4.5537
rtibia 33.0462
rfoot -15.7629 -5.60624
rtoes -12.0887
lfemur -3.35026 -14.9112 -34.1296
ltibia 34.6984
lfoot -28.0008 9.80787
ltoes 2.88534
